HIERARCHY
ROOT Hips
{
 OFFSET 0.000000 0.000000 0.000000
 CHANNELS 6 Xposition Yposition Zposition Yrotation Xrotation Zrotation
 JOINT Chest
 {
  OFFSET 0.000000 9.585900 0.002600
  CHANNELS 3 Yrotation Xrotation Zrotation
  JOINT Chest2
  {
   OFFSET 0.000000 9.601200 -0.005300
   CHANNELS 3 Yrotation Xrotation Zrotation
   JOINT Chest3
   {
    OFFSET 0.000000 9.561800 0.000000
    CHANNELS 3 Yrotation Xrotation Zrotation
    JOINT Chest4
    {
     OFFSET 0.000000 9.552100 0.000000
     CHANNELS 3 Yrotation Xrotation Zrotation
     JOINT Neck
     {
      OFFSET 0.000000 14.453000 0.000000
      CHANNELS 3 Yrotation Xrotation Zrotation
      JOINT Head
      {
       OFFSET 0.000000 8.936500 -0.011300
       CHANNELS 3 Yrotation Xrotation Zrotation
       End Site
       {
        OFFSET 0.000000 17.073600 -0.006000
       }
      }
     }
     JOINT RightCollar
     {
      OFFSET -2.921100 9.558500 0.000000
      CHANNELS 3 Yrotation Xrotation Zrotation
      JOINT RightShoulder
      {
       OFFSET -13.519700 0.000000 0.000000
       CHANNELS 3 Yrotation Xrotation Zrotation
       JOINT RightElbow
       {
        OFFSET 0.000000 -29.696600 0.000000
        CHANNELS 3 Yrotation Xrotation Zrotation
        JOINT RightWrist
        {
         OFFSET 0.000000 -24.004700 0.000000
         CHANNELS 3 Yrotation Xrotation Zrotation
         End Site
         {
          OFFSET 0.000000 -17.728500 0.000000
         }
        }
       }
      }
     }
     JOINT LeftCollar
     {
      OFFSET 2.921100 9.558500 0.000000
      CHANNELS 3 Yrotation Xrotation Zrotation
      JOINT LeftShoulder
      {
       OFFSET 13.519700 0.000000 0.000000
       CHANNELS 3 Yrotation Xrotation Zrotation
       JOINT LeftElbow
       {
        OFFSET 0.000000 -29.696600 0.000000
        CHANNELS 3 Yrotation Xrotation Zrotation
        JOINT LeftWrist
        {
         OFFSET 0.000000 -24.004700 0.000000
         CHANNELS 3 Yrotation Xrotation Zrotation
         End Site
         {
          OFFSET 0.000000 -17.728500 0.000000
         }
        }
       }
      }
     }
    }
   }
  }
 }
 JOINT RightHip
 {
  OFFSET -7.771700 -0.012900 -0.001300
  CHANNELS 3 Yrotation Xrotation Zrotation
  JOINT RightKnee
  {
   OFFSET 0.000000 -40.869800 0.001200
   CHANNELS 3 Yrotation Xrotation Zrotation
   JOINT RightAnkle
   {
    OFFSET 0.000000 -39.717900 0.002100
    CHANNELS 3 Yrotation Xrotation Zrotation
    JOINT RightToe
    {
     OFFSET 0.000000 -4.965400 11.033500
     CHANNELS 3 Yrotation Xrotation Zrotation
     End Site
     {
      OFFSET 0.000000 -1.423100 5.872300
     }
    }
   }
  }
 }
 JOINT LeftHip
 {
  OFFSET 7.771700 -0.012900 -0.001300
  CHANNELS 3 Yrotation Xrotation Zrotation
  JOINT LeftKnee
  {
   OFFSET 0.000000 -40.869800 0.001200
   CHANNELS 3 Yrotation Xrotation Zrotation
   JOINT LeftAnkle
   {
    OFFSET 0.000000 -39.717900 0.002100
    CHANNELS 3 Yrotation Xrotation Zrotation
    JOINT LeftToe
    {
     OFFSET 0.000000 -4.965400 11.033500
     CHANNELS 3 Yrotation Xrotation Zrotation
     End Site
     {
      OFFSET 0.000000 -1.423100 5.872300
     }
    }
   }
  }
 }
}
MOTION
Frames: 8
Frame Time: 0.008333
-105.221968 57.723417 97.021643 177.410838 -35.589526 -1.790262 1.737676 21.950401 2.236624 0.162726 3.013079 0.266915 0.273039 4.893924 0.438887 1.288011 18.569706 1.824156 1.288918 15.495099 -0.078651 2.426603 -6.984953 -0.596600 8.111266 -1.982798 -3.982594 1.139590 -26.432054 -0.902077 -108.727624 -34.704708 82.533285 -11.597749 -17.979429 -48.590175 -10.096230 -4.385586 -2.613190 25.284169 -18.762156 -10.817358 94.224226 -23.616678 -83.399072 16.521111 -18.198293 30.496707 10.358636 -39.720838 -6.522429 -7.148135 67.140974 -5.332624 7.052894 24.667308 5.617880 -0.507530 -16.768989 3.247610 -7.822222 -37.324630 3.043252 25.010516 64.260200 21.794057 -16.371856 7.807023 -3.273982 0.077768 0.145891 0.025574
-105.224117 57.724496 97.020905 177.407120 -35.574240 -1.779315 1.718620 21.946244 2.239531 0.174377 3.005339 0.251595 0.266350 4.895455 0.447812 1.281008 18.568788 1.828845 1.291135 15.486612 -0.095326 2.437472 -7.000959 -0.624765 8.124644 -1.986715 -4.002986 1.112528 -26.414562 -0.891274 -108.722841 -34.696348 82.555235 -11.592684 -17.980930 -48.588163 -10.092231 -4.396108 -2.626956 25.292874 -18.752821 -10.819149 94.218057 -23.626438 -83.391580 16.531520 -18.198436 30.495457 10.369940 -39.731771 -6.534296 -7.158197 67.139777 -5.345517 7.039438 24.653965 5.601666 -0.503585 -16.756050 3.261724 -7.821111 -37.339373 3.026578 25.022605 64.257385 21.810661 -16.360839 7.805635 -3.272357 0.069102 0.144877 0.021184
-105.226785 57.725848 97.019095 177.406407 -35.565455 -1.769774 1.709836 21.940529 2.232937 0.157260 3.012209 0.270314 0.272767 4.890785 0.435593 1.272954 18.568331 1.832248 1.294104 15.478077 -0.112566 2.451202 -7.017476 -0.658527 8.139916 -1.992758 -4.022356 1.083545 -26.394559 -0.880157 -108.712711 -34.686775 82.576302 -11.590972 -17.985338 -48.578440 -10.107785 -4.414844 -2.612076 25.318264 -18.716660 -10.827511 94.221053 -23.610133 -83.394681 16.525930 -18.201460 30.497294 10.380376 -39.737179 -6.549459 -7.175918 67.141591 -5.363219 7.037234 24.644173 5.596830 -0.501022 -16.749068 3.266422 -7.819443 -37.347297 3.010264 25.036145 64.254002 21.825744 -16.350845 7.806021 -3.271120 0.053597 0.142925 0.020246
-105.229888 57.726863 97.017130 177.407212 -35.556635 -1.761076 1.698870 21.935354 2.225176 0.156206 3.011805 0.271088 0.263490 4.893418 0.442973 1.263850 18.568390 1.834437 1.300231 15.470630 -0.132136 2.461646 -7.035098 -0.689448 8.142842 -2.023358 -4.021074 1.076464 -26.348014 -0.885956 -108.700384 -34.676947 82.603867 -11.586416 -17.991849 -48.567615 -10.092322 -4.425434 -2.628642 25.305522 -18.699508 -10.809725 94.204596 -23.580970 -83.385317 16.519315 -18.214895 30.490287 10.391057 -39.743210 -6.565419 -7.195271 67.144660 -5.383783 7.039439 24.634626 5.597859 -0.497413 -16.743817 3.267971 -7.818551 -37.358221 2.995568 25.048847 64.253995 21.840327 -16.349401 7.810351 -3.271041 0.053269 0.135583 0.019729
-105.232945 57.727550 97.015174 177.407118 -35.546996 -1.753956 1.681644 21.931126 2.223409 0.161749 3.009610 0.265622 0.261951 4.893726 0.443519 1.259084 18.568488 1.835410 1.304526 15.467508 -0.143174 2.475587 -7.073788 -0.746136 8.143322 -2.035817 -4.025291 1.048569 -26.314217 -0.866425 -108.684164 -34.673423 82.636861 -11.584536 -17.998705 -48.557692 -10.096647 -4.439111 -2.618944 25.304662 -18.670922 -10.807771 94.201584 -23.559387 -83.386101 16.514194 -18.219199 30.491731 10.397200 -39.751722 -6.577702 -7.210103 67.147617 -5.403290 7.048446 24.629444 5.603891 -0.503099 -16.742159 3.269338 -7.817060 -37.369742 2.985430 25.051912 64.256197 21.847325 -16.352678 7.812979 -3.273824 0.052270 0.129792 0.019217
-105.236781 57.728504 97.012496 177.415003 -35.541447 -1.747473 1.655408 21.933267 2.217480 0.149683 3.015169 0.277697 0.277233 4.884679 0.425198 1.254282 18.568257 1.836714 1.302335 15.461239 -0.149465 2.491715 -7.087220 -0.787940 8.150232 -2.039640 -4.035988 1.005398 -26.281345 -0.833786 -108.669338 -34.670229 82.678003 -11.577045 -18.001241 -48.552204 -10.108462 -4.452852 -2.607003 25.315433 -18.638235 -10.812659 94.195348 -23.540840 -83.389154 16.517117 -18.216827 30.489784 10.374805 -39.754426 -6.578572 -7.180802 67.152140 -5.398170 7.042140 24.613445 5.604145 -0.503718 -16.733018 3.272212 -7.817299 -37.375862 2.966696 25.060663 64.254394 21.857806 -16.348168 7.815694 -3.271001 0.050672 0.126495 0.017077
-105.239573 57.728748 97.010864 177.422859 -35.528248 -1.747403 1.630800 21.932781 2.225300 0.158974 3.006502 0.264255 0.260823 4.890531 0.441531 1.243637 18.562100 1.827166 1.307938 15.454465 -0.169075 2.505641 -7.089977 -0.812462 8.159643 -2.054613 -4.052083 0.969754 -26.228961 -0.798780 -108.654325 -34.663774 82.736747 -11.558646 -18.005226 -48.559545 -10.107507 -4.466296 -2.605452 25.329653 -18.600386 -10.811059 94.185717 -23.515650 -83.396529 16.522999 -18.213450 30.480659 10.366373 -39.765358 -6.583162 -7.160608 67.154278 -5.390179 7.038188 24.605739 5.606794 -0.505705 -16.729069 3.275583 -7.824300 -37.389179 2.965155 25.062751 64.251741 21.858670 -16.355348 7.821607 -3.274196 0.057385 0.122753 0.019396
-105.241690 57.729502 97.008731 177.428430 -35.518855 -1.749047 1.623331 21.925481 2.225258 0.156700 3.008113 0.267171 0.262080 4.888728 0.438818 1.221016 18.566969 1.856299 1.315735 15.446288 -0.210108 2.512763 -7.095456 -0.832881 8.168033 -2.080725 -4.078039 0.940783 -26.163178 -0.765103 -108.630097 -34.672052 82.789193 -11.555566 -18.014324 -48.559070 -10.107213 -4.484090 -2.620705 25.327677 -18.539273 -10.784665 94.195750 -23.469764 -83.430232 16.526310 -18.187471 30.477458 10.362093 -39.772803 -6.586071 -7.148597 67.156018 -5.386018 7.038766 24.601319 5.611571 -0.507497 -16.728454 3.277341 -7.831309 -37.399117 2.968155 25.060575 64.254274 21.855621 -16.362260 7.823820 -3.276719 0.063623 0.119216 0.020661
